<?xml version="1.0" encoding="utf-8"?>
<!-- Generator: Adobe Illustrator 27.6.0, SVG Export Plug-In . SVG Version: 6.00 Build 0)  -->
<svg version="1.1" id="Layer_1" xmlns="http://www.w3.org/2000/svg" xmlns:xlink="http://www.w3.org/1999/xlink" x="0px" y="0px"
	 viewBox="0 0 250 245" style="enable-background:new 0 0 250 245;" xml:space="preserve">
<style type="text/css">
	.st0{fill:#FA0F00;}
</style>
<g>
	
		<image style="overflow:visible;opacity:0.4;enable-background:new    ;" width="252" height="246" xlink:href="7D17F47AC3066B33.png"  transform="matrix(1 0 0 1 -1 -1)">
	</image>
	<path d="M47.5,3h155C226,3,245,22,245,45.5v149c0,23.5-19,42.5-42.5,42.5h-155C24,237,5,218,5,194.5v-149C5,22,24,3,47.5,3z"/>
	<path class="st0" d="M192,179h-29c-2.7,0.2-5.1-1.5-6-4l-31-72c0-0.6-0.4-1-1-1s-1,0.4-1,1l-20,46c0,1.1,0.9,2,2,2h21
		c1.3-0.1,2.6,0.7,3,2l9,21c0.6,2.1-0.6,4.3-2.8,4.9c-0.1,0-0.2,0-0.2,0.1H59c-2.2-0.5-3.5-2.6-3.1-4.8c0-0.1,0-0.2,0.1-0.2l49-117
		c1.1-2.3,3.4-3.9,6-4h28c2.6,0.1,4.9,1.7,6,4l50,117c0.6,2.1-0.6,4.3-2.8,4.9C192.2,179,192.1,179,192,179z"/>
</g>
</svg>
